<svg width="41" height="43" viewBox="0 0 41 43" fill="none" xmlns="http://www.w3.org/2000/svg">
<path d="M22.4876 2.2681C24.3978 12.8187 21.693 17.5729 20.1016 18.6347C22.0095 19.1108 23.4416 22.1297 20.2587 23.8782C19.152 24.1963 17.0759 23.8782 16.7571 21.6536C16.4517 19.5145 18.2423 18.7401 18.9882 18.6347C14.4065 9.85907 4.97747 8.7292 1 9.2711V13.3935C9.53263 12.3755 14.2095 17.5246 15.3118 20.2253C5.77429 23.7817 4.18286 31.8356 4.18286 36.2717H7.84381C8.95051 25.9427 13.4149 25.6246 16.7571 24.2051C15.4844 34.5012 22.2774 40.3568 25.8321 42C26.0534 41.7367 26.3102 40.6332 26.9498 38.3449C21.2238 35.9316 20.635 28.5491 20.9006 25.1573C25.9914 29.1063 36.8171 26.9124 40 22.9326L37.2908 20.2319C29.1721 26.7566 23.4416 21.9871 22.9768 21.1841C29.1743 13.558 26.9609 4.97759 26.4784 1.00001C26.2017 0.99782 25.033 1.25012 22.4876 2.2681Z" fill="#523719" stroke="#523719" stroke-miterlimit="10"/>
</svg>
