<svg id="Layer_1" data-name="Layer 1" xmlns="http://www.w3.org/2000/svg" viewBox="0 0 145.82 89.35"><defs><style>.cls-1,.cls-2{fill:#fff;}.cls-2{stroke:#fff;stroke-miterlimit:10;stroke-width:0.5px;}.cls-3{fill:#ede7d9;}</style></defs><path class="cls-1" d="M578.86,865.7V853.41h4.8a6.72,6.72,0,0,1,2.75.51,3.94,3.94,0,0,1,1.76,1.47,4.2,4.2,0,0,1,.61,2.3,4.14,4.14,0,0,1-.61,2.29,4,4,0,0,1-1.76,1.48,6.72,6.72,0,0,1-2.75.51h-3.83l.79-.82v4.55Zm1.76-4.37-.79-.88h3.77a4,4,0,0,0,2.56-.72,2.85,2.85,0,0,0,0-4.08,4,4,0,0,0-2.56-.72h-3.77l.79-.87Z" transform="translate(-535.38 -797.02)"/><path class="cls-1" d="M592.24,865.7V853.41H597a6.72,6.72,0,0,1,2.75.51,3.94,3.94,0,0,1,1.76,1.47,4.2,4.2,0,0,1,.61,2.3,4.14,4.14,0,0,1-.61,2.29,3.94,3.94,0,0,1-1.76,1.47A6.72,6.72,0,0,1,597,862h-3.83l.79-.81v4.55Zm1.76-4.37-.79-.86H597a3.93,3.93,0,0,0,2.56-.73,2.53,2.53,0,0,0,.86-2,2.49,2.49,0,0,0-.86-2,3.93,3.93,0,0,0-2.56-.72h-3.77l.79-.87Zm6.46,4.37-3.13-4.46h1.88l3.16,4.46Z" transform="translate(-535.38 -797.02)"/><path class="cls-1" d="M611.43,865.84a7,7,0,0,1-2.61-.48,6.15,6.15,0,0,1-2.08-1.32,6.08,6.08,0,0,1-1.36-2,6.27,6.27,0,0,1-.5-2.5,6.19,6.19,0,0,1,.5-2.49,6,6,0,0,1,1.36-2,6.4,6.4,0,0,1,2.07-1.33,7.18,7.18,0,0,1,2.62-.47,7,7,0,0,1,2.59.46,6.21,6.21,0,0,1,2.07,1.32,6,6,0,0,1,1.37,2,6.67,6.67,0,0,1,0,5,6,6,0,0,1-1.37,2,6.35,6.35,0,0,1-2.07,1.31A7,7,0,0,1,611.43,865.84Zm0-1.57a4.89,4.89,0,0,0,1.89-.35,4.4,4.4,0,0,0,1.51-1,4.64,4.64,0,0,0,1-1.5,5.09,5.09,0,0,0,0-3.76,4.64,4.64,0,0,0-1-1.5,4.55,4.55,0,0,0-1.51-1,5.31,5.31,0,0,0-3.79,0,4.59,4.59,0,0,0-1.52,1,4.51,4.51,0,0,0-1,1.5,5.09,5.09,0,0,0,0,3.76,4.51,4.51,0,0,0,1,1.5,4.44,4.44,0,0,0,1.52,1A4.91,4.91,0,0,0,611.43,864.27Z" transform="translate(-535.38 -797.02)"/><path class="cls-1" d="M621.51,865.7V853.41h4.79a6.73,6.73,0,0,1,2.76.51,3.94,3.94,0,0,1,1.76,1.47,4.29,4.29,0,0,1,.61,2.3,4.23,4.23,0,0,1-.61,2.29,4,4,0,0,1-1.76,1.48,6.73,6.73,0,0,1-2.76.51h-3.82l.78-.82v4.55Zm1.75-4.37-.78-.88h3.77a3.9,3.9,0,0,0,2.55-.72,2.83,2.83,0,0,0,0-4.08,3.9,3.9,0,0,0-2.55-.72h-3.77l.78-.87Z" transform="translate(-535.38 -797.02)"/><path class="cls-1" d="M634.89,865.7V853.41h1.75v10.76h6.66v1.53Z" transform="translate(-535.38 -797.02)"/><path class="cls-1" d="M644.33,865.7l5.57-12.29h1.74l5.58,12.29h-1.84l-5-11.31h.7l-5,11.31Zm2.38-3.08.47-1.4h6.92l.51,1.4Z" transform="translate(-535.38 -797.02)"/><path class="cls-1" d="M663.51,865.84a8.33,8.33,0,0,1-2.69-.43,5.53,5.53,0,0,1-2-1.12l.65-1.37a5.79,5.79,0,0,0,1.79,1,6.47,6.47,0,0,0,2.27.41,5.15,5.15,0,0,0,1.73-.25,2,2,0,0,0,1-.68,1.59,1.59,0,0,0,.32-1,1.33,1.33,0,0,0-.42-1,3,3,0,0,0-1.07-.62,10.42,10.42,0,0,0-1.45-.41q-.78-.18-1.59-.42a7.33,7.33,0,0,1-1.45-.6,3,3,0,0,1-1.07-1,2.88,2.88,0,0,1-.4-1.6,3.27,3.27,0,0,1,.5-1.75,3.45,3.45,0,0,1,1.55-1.28,6.36,6.36,0,0,1,2.66-.48,8.07,8.07,0,0,1,2.12.28,5.88,5.88,0,0,1,1.83.81l-.58,1.4a5.57,5.57,0,0,0-1.67-.76,6.51,6.51,0,0,0-1.7-.24,4.84,4.84,0,0,0-1.71.26,2.11,2.11,0,0,0-1,.7,1.66,1.66,0,0,0-.31,1,1.35,1.35,0,0,0,.41,1,2.93,2.93,0,0,0,1.07.62,14.94,14.94,0,0,0,1.45.41c.53.12,1.06.26,1.59.41a7.69,7.69,0,0,1,1.46.6,3,3,0,0,1,1.06,1,2.83,2.83,0,0,1,.4,1.58,3.22,3.22,0,0,1-.5,1.73,3.5,3.5,0,0,1-1.57,1.28A6.39,6.39,0,0,1,663.51,865.84Z" transform="translate(-535.38 -797.02)"/><path class="cls-1" d="M674,865.7V854.93h-4.21v-1.52h10.16v1.52h-4.21V865.7Z" transform="translate(-535.38 -797.02)"/><path class="cls-1" d="M564.38,886.33v-5h-1.94V881h4.26v.35h-1.93v5Z" transform="translate(-535.38 -797.02)"/><path class="cls-1" d="M571.81,882.29a1.91,1.91,0,0,1,.86.19,1.42,1.42,0,0,1,.57.57,2,2,0,0,1,.2.94v2.34h-.38V884a1.47,1.47,0,0,0-.34-1,1.3,1.3,0,0,0-1-.35,1.62,1.62,0,0,0-.81.19,1.25,1.25,0,0,0-.53.54,1.78,1.78,0,0,0-.18.83v2.13h-.38v-5.69h.38v2.8l-.07-.13a1.53,1.53,0,0,1,.61-.74A1.78,1.78,0,0,1,571.81,882.29Z" transform="translate(-535.38 -797.02)"/><path class="cls-1" d="M579,886.36a2,2,0,0,1-1.07-.26,1.81,1.81,0,0,1-.73-.72,2,2,0,0,1-.27-1,2.16,2.16,0,0,1,.25-1.06,1.88,1.88,0,0,1,.69-.71,1.83,1.83,0,0,1,1-.27,1.91,1.91,0,0,1,1,.26,1.72,1.72,0,0,1,.68.71,2.09,2.09,0,0,1,.25,1v.06a.43.43,0,0,0,0,0h-3.54v-.3h3.34l-.16.15a1.65,1.65,0,0,0-.19-.84,1.57,1.57,0,0,0-.55-.59,1.52,1.52,0,0,0-.8-.21,1.48,1.48,0,0,0-.79.21,1.42,1.42,0,0,0-.55.59,1.67,1.67,0,0,0-.2.85v.07a1.71,1.71,0,0,0,.22.87,1.48,1.48,0,0,0,.6.59,1.78,1.78,0,0,0,.87.21,1.89,1.89,0,0,0,.72-.14,1.46,1.46,0,0,0,.57-.42l.22.25a1.55,1.55,0,0,1-.66.49A2.18,2.18,0,0,1,579,886.36Z" transform="translate(-535.38 -797.02)"/><path class="cls-1" d="M588.62,886.33V881h1.93a2.9,2.9,0,0,1,1.16.21,1.77,1.77,0,0,1,.75.62,2,2,0,0,1,0,2,1.7,1.7,0,0,1-.75.62,2.89,2.89,0,0,1-1.16.22h-1.71l.17-.19v1.94Zm.39-1.92-.17-.19h1.71a2,2,0,0,0,1.32-.38,1.32,1.32,0,0,0,.45-1.07,1.35,1.35,0,0,0-.45-1.08,2,2,0,0,0-1.32-.38h-1.71l.17-.19Z" transform="translate(-535.38 -797.02)"/><path class="cls-1" d="M596.1,886.33v-4h.37v1.1l0-.12a1.4,1.4,0,0,1,.56-.74,1.78,1.78,0,0,1,1-.27v.38h-.09a1.33,1.33,0,0,0-1,.42,1.7,1.7,0,0,0-.38,1.17v2.08Z" transform="translate(-535.38 -797.02)"/><path class="cls-1" d="M603,886.36a2.07,2.07,0,0,1-1.07-.26,1.81,1.81,0,0,1-.73-.72,2,2,0,0,1-.27-1,2.16,2.16,0,0,1,.25-1.06,1.88,1.88,0,0,1,.69-.71,1.83,1.83,0,0,1,1-.27,1.89,1.89,0,0,1,1,.26,1.81,1.81,0,0,1,.69.71,2.2,2.2,0,0,1,.24,1v.11h-3.54v-.3h3.33l-.15.15a1.66,1.66,0,0,0-.2-.84,1.57,1.57,0,0,0-.55-.59,1.61,1.61,0,0,0-1.59,0,1.42,1.42,0,0,0-.55.59,1.67,1.67,0,0,0-.2.85v.07a1.71,1.71,0,0,0,.22.87,1.48,1.48,0,0,0,.6.59,1.82,1.82,0,0,0,.88.21,1.87,1.87,0,0,0,.71-.14,1.39,1.39,0,0,0,.57-.42l.22.25a1.55,1.55,0,0,1-.66.49A2.15,2.15,0,0,1,603,886.36Z" transform="translate(-535.38 -797.02)"/><path class="cls-1" d="M607.55,882.65v-.33H610v.33Zm.74,3.68v-4.62a1,1,0,0,1,1.11-1.11,1.62,1.62,0,0,1,.44.07.81.81,0,0,1,.35.2l-.15.29a.62.62,0,0,0-.28-.17.93.93,0,0,0-.34-.06.7.7,0,0,0-.56.21.83.83,0,0,0-.2.6v4.59Z" transform="translate(-535.38 -797.02)"/><path class="cls-1" d="M614.6,886.36a2.11,2.11,0,0,1-1.08-.26,1.87,1.87,0,0,1-.73-.72,2.12,2.12,0,0,1-.26-1,2.16,2.16,0,0,1,.25-1.06,1.75,1.75,0,0,1,.69-.71,1.83,1.83,0,0,1,1-.27,1.91,1.91,0,0,1,1,.26,1.72,1.72,0,0,1,.68.71,2.09,2.09,0,0,1,.25,1v.06a.07.07,0,0,0,0,0h-3.54v-.3h3.34l-.16.15a1.65,1.65,0,0,0-.19-.84,1.57,1.57,0,0,0-.55-.59,1.52,1.52,0,0,0-.8-.21,1.54,1.54,0,0,0-.8.21,1.57,1.57,0,0,0-.55.59,1.78,1.78,0,0,0-.2.85v.07a1.81,1.81,0,0,0,.22.87,1.57,1.57,0,0,0,.61.59,1.75,1.75,0,0,0,.87.21,1.89,1.89,0,0,0,.72-.14,1.46,1.46,0,0,0,.57-.42l.22.25a1.68,1.68,0,0,1-.66.49A2.18,2.18,0,0,1,614.6,886.36Z" transform="translate(-535.38 -797.02)"/><path class="cls-1" d="M621.45,886.36a2,2,0,0,1-1-.26,1.87,1.87,0,0,1-.73-.72,2.12,2.12,0,0,1-.26-1,2.16,2.16,0,0,1,.26-1.06,1.87,1.87,0,0,1,.73-.72,2.08,2.08,0,0,1,1-.26,2,2,0,0,1,.88.19,1.61,1.61,0,0,1,.64.55l-.29.21a1.2,1.2,0,0,0-.53-.45,1.66,1.66,0,0,0-.7-.15,1.7,1.7,0,0,0-.85.21,1.56,1.56,0,0,0-.58.59,2,2,0,0,0,0,1.78,1.56,1.56,0,0,0,.58.59,1.7,1.7,0,0,0,.85.21,1.66,1.66,0,0,0,.7-.15,1.2,1.2,0,0,0,.53-.45l.29.21a1.61,1.61,0,0,1-.64.55A2.13,2.13,0,0,1,621.45,886.36Z" transform="translate(-535.38 -797.02)"/><path class="cls-1" d="M625.81,882.65v-.33h2.39v.33Zm1.83,3.71a1,1,0,0,1-.81-.29,1.08,1.08,0,0,1-.28-.8v-3.82h.38v3.79a.84.84,0,0,0,.19.59.71.71,0,0,0,.56.2.89.89,0,0,0,.62-.22l.16.27a1,1,0,0,1-.38.22A1.61,1.61,0,0,1,627.64,886.36Z" transform="translate(-535.38 -797.02)"/><path class="cls-1" d="M636.62,886.33h-.39V881h3.6v.35h-3.21Zm0-2.72h2.91V884h-2.91Z" transform="translate(-535.38 -797.02)"/><path class="cls-1" d="M643.45,881.35a.29.29,0,0,1-.22-.09.31.31,0,0,1,0-.44.29.29,0,0,1,.22-.09.32.32,0,0,1,.23.09.26.26,0,0,1,.08.21.31.31,0,0,1-.08.23A.32.32,0,0,1,643.45,881.35Zm-.19,5v-4h.38v4Z" transform="translate(-535.38 -797.02)"/><path class="cls-1" d="M646.91,882.65v-.33h2.39v.33Zm1.82,3.71a1.06,1.06,0,0,1-.81-.29,1.13,1.13,0,0,1-.28-.8v-3.82H648v3.79a.84.84,0,0,0,.19.59.7.7,0,0,0,.55.2.87.87,0,0,0,.62-.22l.17.27a1,1,0,0,1-.38.22A1.63,1.63,0,0,1,648.73,886.36Z" transform="translate(-535.38 -797.02)"/><path class="cls-1" d="M561.08,846c1.15,6.42-.48,9.32-1.45,10,1.16.29,2,2.13.1,3.19a1.62,1.62,0,0,1-2.11-1.35A1.58,1.58,0,0,1,559,856a11,11,0,0,0-10.85-5.71v2.52c5.15-.62,8,2.51,8.64,4.16a10,10,0,0,0-6.72,9.77h2.21c.67-6.29,3.36-6.48,5.38-7.35a10.45,10.45,0,0,0,5.47,10.83,13,13,0,0,0,.67-2.22c-3.45-1.47-3.81-6-3.64-8,3.07,2.4,9.6,1.06,11.52-1.36L570,856.92c-4.9,4-8.36,1.06-8.65.58,3.75-4.65,2.4-9.87,2.12-12.29A10.3,10.3,0,0,0,561.08,846Z" transform="translate(-535.38 -797.02)"/><line class="cls-2" y1="87.95" x2="23.28" y2="87.95"/><line class="cls-2" x1="118.72" y1="87.95" x2="142" y2="87.95"/><path class="cls-3" d="M681.08,844.05V830.58c-32.58-21.64-68.3-18.08-102.21-3.84C594.18,823.18,638.86,812.15,681.08,844.05Z" transform="translate(-535.38 -797.02)"/><path class="cls-1" d="M535.72,797H681.2v28.77c-32.6-24.69-81.87-17.86-81.87-17.86s-34.72,24.53-63.61,40.51Z" transform="translate(-535.38 -797.02)"/><path class="cls-3" d="M535.72,867.25V848.16c35.8-49.17,107.06-55.35,145.17-22.61C624.22,786.82,550.43,827.13,535.72,867.25Z" transform="translate(-535.38 -797.02)"/></svg>