<svg width="961" height="262" viewBox="0 0 961 262" fill="none" xmlns="http://www.w3.org/2000/svg">
<g clip-path="url(#clip0_204_86)">
<path d="M98.08 6.28983C106.71 54.3798 94.49 76.0498 87.3 80.8898C95.92 83.0598 102.39 96.8198 88.01 104.79C83.01 106.24 73.63 104.79 72.19 94.6498C70.81 84.8998 78.9 81.3698 82.27 80.8898C61.57 40.8898 18.97 35.7398 1 38.2098V56.9998C39.55 52.3598 60.68 75.8298 65.66 88.1398C22.57 104.35 15.38 141.06 15.38 161.28H31.92C36.92 114.2 57.09 112.75 72.19 106.28C66.44 153.21 97.13 179.9 113.19 187.39C114.19 186.19 115.35 181.16 118.24 170.73C92.37 159.73 89.71 126.08 90.91 110.62C113.91 128.62 162.82 118.62 177.2 100.48L164.96 88.1698C128.28 117.91 102.39 96.1698 100.29 92.5098C128.29 57.7498 118.29 18.6398 116.11 0.50983C114.86 0.49983 109.58 1.64983 98.08 6.28983Z" fill="#ECE6D8" stroke="#ECE6D8" stroke-miterlimit="10"/>
<path d="M0 245.47H130.34" stroke="#ECE6D8" stroke-width="6" stroke-miterlimit="10"/>
<path d="M829.65 245.47H960" stroke="#ECE6D8" stroke-width="6" stroke-miterlimit="10"/>
<path d="M255.02 45.9102C274.7 45.9102 288.67 58.4202 288.67 78.1002C288.67 97.7802 274.67 110.55 255.02 110.55H236.02V142.17H218.71V45.9102H255.02ZM270.84 78.1002C270.84 68.6602 264.46 61.6102 252.89 61.6102H236V94.8502H252.89C264.46 94.8502 270.84 87.8102 270.84 78.1002Z" fill="#ECE6D8"/>
<path d="M372.04 142.17L345.84 102.17L333.21 102.04V142.17H315.92V45.9102H353.16C371.64 45.9102 386.27 54.6902 386.27 73.7102C386.27 88.3402 376.43 97.2502 364.59 100.57L392.12 142.17H372.04ZM333.21 86.9802H351.03C361.54 86.9802 368.45 82.5902 368.45 73.6802C368.45 64.7702 361.54 61.5802 351.03 61.5802H333.21V86.9802Z" fill="#ECE6D8"/>
<path d="M459.81 143.79C431.74 143.79 410.2 121.32 410.2 93.9198C410.2 66.5198 431.74 44.0498 459.81 44.0498C487.88 44.0498 509.41 66.5298 509.41 93.9198C509.41 121.31 487.87 143.79 459.81 143.79ZM459.81 127.57C478.56 127.57 492.12 111.48 492.12 93.9198C492.12 76.3598 478.56 60.2798 459.81 60.2798C441.06 60.2798 427.49 76.3698 427.49 93.9198C427.49 111.47 440.92 127.57 459.81 127.57Z" fill="#ECE6D8"/>
<path d="M574.29 45.9102C593.97 45.9102 607.93 58.4202 607.93 78.1002C607.93 97.7802 593.93 110.55 574.29 110.55H555.29V142.17H537.99V45.9102H574.29ZM590.11 78.1002C590.11 68.6602 583.73 61.6102 572.11 61.6102H555.29V94.8502H572.18C583.74 94.8502 590.12 87.8102 590.12 78.1002H590.11Z" fill="#ECE6D8"/>
<path d="M652.49 45.9102V126.51H689.59V142.17H635.2V45.9102H652.49Z" fill="#ECE6D8"/>
<path d="M770.97 125.44H731.21L724.21 142.2H705.67L748.36 44.3203H753.68L796.29 142.17H778.02L770.97 125.44ZM764.29 109.75L750.99 78.3603L737.83 109.75H764.29Z" fill="#ECE6D8"/>
<path d="M842.11 60.2803C839.665 60.2239 837.298 61.14 835.528 62.8275C833.758 64.5149 832.73 66.8357 832.67 69.2803C832.67 73.1403 835.33 76.8603 841.18 78.8603L849.29 81.7803C862.86 86.7003 876.29 95.7803 876.29 113.17C876.29 131.79 861.53 143.75 841.85 143.75C823.76 143.75 813.12 132.85 809.4 124.21L823.09 114.21C826.68 122.32 833.6 127.51 843.31 127.51C852.62 127.51 859 121.66 859 113.01C859 104.77 852.09 100.25 844.77 97.7203L836.29 94.7203C823.29 90.0703 815.68 81.7203 815.54 69.0503C815.4 56.3803 827.11 44.3203 842.14 44.3203C856.14 44.3203 864.62 51.1003 869.4 57.8803L856.5 67.9903C854.906 65.6349 852.763 63.7023 850.257 62.3591C847.75 61.0159 844.954 60.3025 842.11 60.2803V60.2803Z" fill="#ECE6D8"/>
<path d="M893.97 61.6102V45.9102H960.97V61.6102H936.1V142.17H918.81V61.6102H893.97Z" fill="#ECE6D8"/>
<path d="M146.36 231.66V225.99H170.55V231.66H161.55V260.75H155.29V231.66H146.36Z" fill="#ECE6D8"/>
<path d="M204.29 223.79V238.57C205.45 236.94 207.65 235.45 211.78 235.45C218.07 235.45 221.53 239.87 221.53 246.2V260.75H215.43V246.88C215.43 242.94 213.56 240.88 209.96 240.88C206.69 240.88 204.29 242.95 204.29 246.88V260.75H198.2V223.75L204.29 223.79Z" fill="#ECE6D8"/>
<path d="M249.85 248.46C249.85 240.78 255.08 235.46 262.28 235.46C270.06 235.46 273.75 240.6 273.75 247.22C273.757 248.185 273.677 249.149 273.51 250.1H256.09C256.61 253.7 259.35 256.1 263.33 256.1C264.669 256.1 265.995 255.828 267.225 255.3C268.456 254.773 269.567 254 270.49 253.03L273.49 257.45C270.685 260.067 266.954 261.463 263.12 261.33C255.03 261.32 249.85 255.71 249.85 248.46ZM256.23 245.19H267.51C267.41 242.12 265.16 240.68 262.28 240.68C259.4 240.68 256.85 242.17 256.23 245.17V245.19Z" fill="#ECE6D8"/>
<path d="M351.08 225.99C358.18 225.99 363.22 230.51 363.22 237.61C363.22 244.71 358.22 249.32 351.08 249.32H344.21V260.75H337.97V225.99H351.08ZM356.79 237.61C356.79 234.2 354.49 231.61 350.31 231.61H344.21V243.61H350.29C354.49 243.66 356.79 241.11 356.79 237.61Z" fill="#ECE6D8"/>
<path d="M389.29 248.46C389.29 240.78 394.52 235.46 401.72 235.46C409.5 235.46 413.2 240.6 413.2 247.22C413.207 248.185 413.127 249.149 412.96 250.1H395.57C396.1 253.7 398.84 256.1 402.82 256.1C404.158 256.099 405.481 255.827 406.71 255.299C407.939 254.772 409.048 253.999 409.97 253.03L412.97 257.45C410.164 260.067 406.434 261.463 402.6 261.33C394.52 261.32 389.29 255.71 389.29 248.46ZM395.68 245.19H406.96C406.86 242.12 404.61 240.68 401.72 240.68C398.83 240.68 396.34 242.17 395.72 245.17L395.68 245.19Z" fill="#ECE6D8"/>
<path d="M448.04 236.03V238.38C448.85 236.89 450.44 235.45 453.56 235.45C457.44 235.45 460.18 238.45 459.94 243.8H453.99C454.032 243.41 453.99 243.016 453.865 242.644C453.74 242.273 453.536 241.932 453.267 241.647C452.998 241.362 452.67 241.138 452.307 240.992C451.943 240.846 451.552 240.781 451.16 240.8C449.52 240.8 448.04 242 448.04 245.93V260.72H441.94V236.03H448.04Z" fill="#ECE6D8"/>
<path d="M495.17 231.71V236.03H501.56V240.92H495.17V260.75H489.08V240.92H486.08V236.03H489.08V231.71C489.08 226.76 492.15 223.21 497.43 223.21C502.71 223.21 505.43 226.71 505.43 231.03H499.62C499.62 229.5 498.94 228.35 497.41 228.35C495.88 228.35 495.17 229.5 495.17 231.71Z" fill="#ECE6D8"/>
<path d="M527.29 248.46C527.29 240.78 532.52 235.46 539.72 235.46C547.5 235.46 551.19 240.6 551.19 247.22C551.197 248.185 551.117 249.149 550.95 250.1H533.48C534 253.7 536.74 256.1 540.72 256.1C542.059 256.1 543.385 255.828 544.615 255.3C545.846 254.773 546.957 254 547.88 253.03L550.88 257.45C548.074 260.067 544.344 261.463 540.51 261.33C532.42 261.32 527.29 255.71 527.29 248.46ZM533.67 245.19H544.95C544.85 242.12 542.6 240.68 539.72 240.68C536.84 240.68 534.29 242.17 533.62 245.17L533.67 245.19Z" fill="#ECE6D8"/>
<path d="M591.22 255.66C592.596 255.702 593.965 255.431 595.221 254.866C596.477 254.301 597.588 253.458 598.47 252.4L601.68 257.15C600.314 258.538 598.674 259.626 596.865 260.344C595.055 261.062 593.115 261.394 591.17 261.32C583.35 261.32 578.4 255.71 578.4 248.41C578.4 241.11 583.35 235.5 591.17 235.5C593.115 235.426 595.055 235.759 596.865 236.477C598.674 237.195 600.314 238.283 601.68 239.67L598.47 244.43C597.59 243.369 596.48 242.523 595.223 241.956C593.967 241.389 592.598 241.117 591.22 241.16C587.22 241.16 584.5 244.04 584.5 248.41C584.5 252.78 587.29 255.66 591.22 255.66Z" fill="#ECE6D8"/>
<path d="M638.07 236.03H644.29V240.92H638.1V260.75H632V240.92H626.77L636.66 228.73H638.1L638.07 236.03Z" fill="#ECE6D8"/>
<path d="M727.4 225.99V231.66H712.61V240.35H725.61V246.01H712.61V260.75H706.37V225.99H727.4Z" fill="#ECE6D8"/>
<path d="M755.04 227C755.043 226.007 755.439 225.056 756.142 224.355C756.845 223.653 757.797 223.26 758.79 223.26C759.278 223.261 759.762 223.359 760.212 223.548C760.663 223.737 761.071 224.013 761.414 224.361C761.757 224.709 762.028 225.121 762.211 225.574C762.394 226.027 762.485 226.511 762.48 227C762.48 227.986 762.088 228.933 761.391 229.63C760.693 230.328 759.747 230.72 758.76 230.72C757.773 230.72 756.827 230.328 756.13 229.63C755.432 228.933 755.04 227.986 755.04 227V227ZM761.86 236V260.72H755.76V236.03L761.86 236Z" fill="#ECE6D8"/>
<path d="M800.4 236.03H806.59V240.92H800.4V260.75H794.29V240.92H789.06L798.95 228.73H800.39L800.4 236.03Z" fill="#ECE6D8"/>
</g>
<defs>
<clipPath id="clip0_204_86">
<rect width="961" height="261.33" fill="white"/>
</clipPath>
</defs>
</svg>
