<svg id="Layer_1" data-name="Layer 1" xmlns="http://www.w3.org/2000/svg" viewBox="0 0 961 261.33"><defs><style>.cls-1,.cls-2,.cls-3{fill:#523513;}.cls-1{stroke:#fff;}.cls-1,.cls-2{stroke-miterlimit:10;}.cls-2{stroke:#523513;stroke-width:6px;}</style></defs><path class="cls-1" d="M248.79,384.12c8.63,48.09-3.59,69.76-10.78,74.6,8.62,2.17,15.09,15.93.71,23.9-5,1.45-14.38,0-15.82-10.14-1.38-9.75,6.71-13.28,10.08-13.76-20.7-40-63.3-45.15-81.27-42.68v18.79c38.55-4.64,59.68,18.83,64.66,31.14-43.09,16.21-50.28,52.92-50.28,73.14h16.54c5-47.08,25.17-48.53,40.27-55-5.75,46.93,24.94,73.62,41,81.11,1-1.2,2.16-6.23,5.05-16.66-25.87-11-28.53-44.65-27.33-60.11,23,18,71.91,8,86.29-10.14L315.67,466c-36.68,29.74-62.57,8-64.67,4.34,28-34.76,18-73.87,15.82-92C265.57,378.33,260.29,379.48,248.79,384.12Z" transform="translate(-150.71 -377.83)"/><line class="cls-2" y1="245.47" x2="130.34" y2="245.47"/><line class="cls-2" x1="829.65" y1="245.47" x2="960" y2="245.47"/><path class="cls-3" d="M405.73,423.74c19.68,0,33.65,12.51,33.65,32.19s-14,32.45-33.65,32.45h-19V520H369.42V423.74Zm15.82,32.19c0-9.44-6.38-16.49-17.95-16.49H386.71v33.24H403.6C415.17,472.68,421.55,465.64,421.55,455.93Z" transform="translate(-150.71 -377.83)"/><path class="cls-3" d="M522.75,520l-26.2-40-12.63-.13V520H466.63V423.74h37.24c18.48,0,33.11,8.78,33.11,27.8,0,14.63-9.84,23.54-21.68,26.86L542.83,520Zm-38.83-55.19h17.82c10.51,0,17.42-4.39,17.42-13.3s-6.91-12.1-17.42-12.1H483.92Z" transform="translate(-150.71 -377.83)"/><path class="cls-3" d="M610.52,521.62c-28.07,0-49.61-22.47-49.61-49.87s21.54-49.87,49.61-49.87,49.6,22.48,49.6,49.87S638.58,521.62,610.52,521.62Zm0-16.22c18.75,0,32.31-16.09,32.31-33.65s-13.56-33.64-32.31-33.64S578.2,454.2,578.2,471.75,591.63,505.4,610.52,505.4Z" transform="translate(-150.71 -377.83)"/><path class="cls-3" d="M725,423.74c19.68,0,33.64,12.51,33.64,32.19s-14,32.45-33.64,32.45H706V520H688.7V423.74Zm15.82,32.19c0-9.44-6.38-16.49-18-16.49H706v33.24h16.89C734.45,472.68,740.83,465.64,740.83,455.93Z" transform="translate(-150.71 -377.83)"/><path class="cls-3" d="M803.2,423.74v80.6h37.1V520H785.91V423.74Z" transform="translate(-150.71 -377.83)"/><path class="cls-3" d="M921.68,503.27H881.92l-7,16.76H856.38l42.69-97.88h5.32L947,520H928.73ZM915,487.58l-13.3-31.39-13.16,31.39Z" transform="translate(-150.71 -377.83)"/><path class="cls-3" d="M992.82,438.11a9.23,9.23,0,0,0-9.44,9c0,3.86,2.66,7.58,8.51,9.58l8.11,2.92c13.57,4.92,27,14,27,31.39,0,18.62-14.76,30.58-34.44,30.58-18.09,0-28.73-10.9-32.45-19.54l13.69-10c3.59,8.11,10.51,13.3,20.22,13.3,9.31,0,15.69-5.85,15.69-14.5,0-8.24-6.91-12.76-14.23-15.29L987,472.55c-13-4.65-20.61-13-20.75-25.67s11.57-24.73,26.6-24.73c14,0,22.48,6.78,27.26,13.56l-12.9,10.11A17.54,17.54,0,0,0,992.82,438.11Z" transform="translate(-150.71 -377.83)"/><path class="cls-3" d="M1044.68,439.44v-15.7h67v15.7h-24.87V520h-17.29V439.44Z" transform="translate(-150.71 -377.83)"/><path class="cls-3" d="M297.07,609.49v-5.67h24.19v5.67h-9v29.09H306V609.49Z" transform="translate(-150.71 -377.83)"/><path class="cls-3" d="M355,601.62V616.4c1.16-1.63,3.36-3.12,7.49-3.12,6.29,0,9.75,4.42,9.75,10.75v14.55h-6.1V624.71c0-3.94-1.87-6-5.47-6-3.27,0-5.67,2.07-5.67,6v13.87h-6.09v-37Z" transform="translate(-150.71 -377.83)"/><path class="cls-3" d="M400.56,626.29c0-7.68,5.23-13,12.43-13,7.78,0,11.47,5.14,11.47,11.76a16,16,0,0,1-.24,2.88H406.8c.52,3.6,3.26,6,7.24,6a9.88,9.88,0,0,0,7.16-3.07l3,4.42a14.47,14.47,0,0,1-10.37,3.88C405.74,639.15,400.56,633.54,400.56,626.29Zm6.38-3.27h11.28c-.1-3.07-2.35-4.51-5.23-4.51S407.56,620,406.94,623Z" transform="translate(-150.71 -377.83)"/><path class="cls-3" d="M501.79,603.82c7.1,0,12.14,4.52,12.14,11.62s-5,11.71-12.14,11.71h-6.87v11.43h-6.24V603.82Zm5.71,11.62c0-3.41-2.3-6-6.48-6h-6.1v12H501C505.2,621.49,507.5,618.94,507.5,615.44Z" transform="translate(-150.71 -377.83)"/><path class="cls-3" d="M540,626.29c0-7.68,5.23-13,12.43-13,7.78,0,11.48,5.14,11.48,11.76a16,16,0,0,1-.24,2.88H546.28c.53,3.6,3.27,6,7.25,6a9.87,9.87,0,0,0,7.15-3.07l3,4.42a14.47,14.47,0,0,1-10.37,3.88C545.23,639.15,540,633.54,540,626.29Zm6.39-3.27h11.28c-.1-3.07-2.35-4.51-5.24-4.51S547.05,620,546.43,623Z" transform="translate(-150.71 -377.83)"/><path class="cls-3" d="M598.75,613.86v2.35c.81-1.49,2.4-2.93,5.52-2.93,3.88,0,6.62,3,6.38,8.35H604.7a2.71,2.71,0,0,0-2.83-3c-1.64,0-3.12,1.2-3.12,5.13v14.79h-6.1V613.86Z" transform="translate(-150.71 -377.83)"/><path class="cls-3" d="M645.88,609.54v4.32h6.39v4.89h-6.39v19.83h-6.09V618.75h-3v-4.89h3v-4.32c0-4.95,3.07-8.5,8.35-8.5s8,3.5,8,7.82h-5.81c0-1.53-.68-2.68-2.21-2.68S645.88,607.33,645.88,609.54Z" transform="translate(-150.71 -377.83)"/><path class="cls-3" d="M678,626.29c0-7.68,5.23-13,12.43-13,7.78,0,11.47,5.14,11.47,11.76a16,16,0,0,1-.24,2.88H684.19c.52,3.6,3.26,6,7.24,6a9.88,9.88,0,0,0,7.16-3.07l3,4.42a14.47,14.47,0,0,1-10.37,3.88C683.13,639.15,678,633.54,678,626.29Zm6.38-3.27h11.28c-.1-3.07-2.35-4.51-5.23-4.51S685,620,684.33,623Z" transform="translate(-150.71 -377.83)"/><path class="cls-3" d="M741.93,633.49a9.08,9.08,0,0,0,7.25-3.26l3.21,4.75a14,14,0,0,1-10.51,4.17c-7.82,0-12.77-5.61-12.77-12.91s4.95-12.91,12.77-12.91a14,14,0,0,1,10.51,4.17l-3.21,4.76a9.05,9.05,0,0,0-7.25-3.27c-4,0-6.72,2.88-6.72,7.25S738,633.49,741.93,633.49Z" transform="translate(-150.71 -377.83)"/><path class="cls-3" d="M788.78,613.86H795v4.89h-6.19v19.83h-6.1V618.75h-5.23l9.89-12.19h1.44Z" transform="translate(-150.71 -377.83)"/><path class="cls-3" d="M878.11,603.82v5.67H863.32v8.69h13v5.66h-13v14.74h-6.24V603.82Z" transform="translate(-150.71 -377.83)"/><path class="cls-3" d="M905.75,604.83a3.75,3.75,0,0,1,3.75-3.74,3.7,3.7,0,0,1,3.69,3.74,3.72,3.72,0,0,1-7.44,0Zm6.82,9v24.72h-6.1V613.86Z" transform="translate(-150.71 -377.83)"/><path class="cls-3" d="M951.11,613.86h6.19v4.89h-6.19v19.83H945V618.75h-5.23l9.89-12.19h1.44Z" transform="translate(-150.71 -377.83)"/></svg>